<?xml version="1.0" encoding="UTF-8" standalone="no"?>
<!-- Created with Inkscape (http://www.inkscape.org/) -->

<svg
   width="74mm"
   height="40mm"
   viewBox="0 0 74 40"
   id="SVGRoot"
   version="1.1"
   inkscape:version="1.4 (e7c3feb100, 2024-10-09)"
   sodipodi:docname="branding.svg"
   xmlns:inkscape="http://www.inkscape.org/namespaces/inkscape"
   xmlns:sodipodi="http://sodipodi.sourceforge.net/DTD/sodipodi-0.dtd"
   xmlns="http://www.w3.org/2000/svg"
   xmlns:svg="http://www.w3.org/2000/svg">
  <sodipodi:namedview
     inkscape:document-units="mm"
     inkscape:zoom="4"
     inkscape:cx="142.625"
     inkscape:cy="98.25"
     id="namedview1"
     pagecolor="#ffffff"
     bordercolor="#000000"
     borderopacity="0.25"
     inkscape:showpageshadow="2"
     inkscape:pageopacity="0.0"
     inkscape:pagecheckerboard="0"
     inkscape:deskcolor="#d1d1d1"
     inkscape:window-width="2304"
     inkscape:window-height="1371"
     inkscape:window-x="26"
     inkscape:window-y="23"
     inkscape:window-maximized="0"
     inkscape:current-layer="layer1" />
  <defs
     id="defs1" />
  <g
     inkscape:label="POC Base"
     inkscape:groupmode="layer"
     id="layer1"
     style="fill:#784421;fill-opacity:1">
    <path
       d="M 11.047723,25.277106 V 4.5349225 h 3.703962 c 2.390288,0 4.247208,0.5136165 5.570757,1.5408482 1.323548,1.0074771 1.985323,2.4199203 1.985323,4.2373303 0,1.817411 -0.661775,3.239732 -1.985323,4.266964 -1.323549,1.007477 -3.180469,1.511216 -5.570757,1.511216 H 13.062678 L 12.540906,24.72464 Z M 14.751685,5.2460827 H 13.062678 V 15.380121 h 1.689007 c 3.615065,0 5.422598,-1.689006 5.422598,-5.06702 0,-3.3780116 -1.807533,-5.0670183 -5.422598,-5.0670183 z"
       id="text10"
       style="font-size:22.5778px;font-family:Aboreto;-inkscape-font-specification:Aboreto;text-align:center;letter-spacing:-0.166688px;fill:#aa4400;stroke-width:1.31243"
       aria-label="P"
       sodipodi:nodetypes="ccscscscccsccsss" />
  </g>
  <g
     inkscape:groupmode="layer"
     id="layer2"
     inkscape:label="PAGES Base">
    <path
       d="M 3.9463178,35.694492 V 14.952311 h 3.7039609 q 3.5854343,0 5.5707583,1.540847 1.985324,1.511216 1.985324,4.237332 0,2.726116 -1.985324,4.266963 -1.985324,1.511216 -5.5707583,1.511216 H 5.9612733 v 9.185823 z M 7.6502787,15.663471 H 5.9612733 v 10.134038 h 1.6890054 q 5.4226003,0 5.4226003,-5.067019 0,-5.067019 -5.4226003,-5.067019 z"
       id="text7"
       style="font-size:22.5778px;font-family:Aboreto;-inkscape-font-specification:Aboreto;text-align:center;letter-spacing:-0.166688px;fill:#214478;stroke-width:1.31243"
       aria-label="P" />
    <path
       d="m 11.252137,35.694492 7.970925,-20.742181 h 1.837164 l 7.970925,20.742181 h -2.163114 l -3.674329,-9.719193 h -6.726394 l -3.052063,9.719193 z m 8.178346,-19.201334 -2.755746,8.77098 h 6.252286 l -3.31875,-8.77098 z"
       id="text6"
       style="font-size:22.5778px;font-family:Aboreto;-inkscape-font-specification:Aboreto;text-align:center;letter-spacing:-0.166688px;fill:#214478;stroke-width:1.31243"
       aria-label="a" />
    <path
       d="m 38.796439,25.856771 v -0.71116 h 7.496817 v 8.05982 q -1.363058,1.363058 -3.348381,2.133482 -1.955692,0.770423 -4.385489,0.770423 -2.489063,0 -4.592913,-0.800055 -2.103849,-0.829688 -3.674329,-2.281641 -1.570479,-1.481584 -2.45943,-3.437276 -0.85932,-1.955691 -0.85932,-4.266962 0,-2.311271 0.85932,-4.266963 0.888951,-1.955692 2.45943,-3.407644 1.57048,-1.481584 3.674329,-2.281641 2.10385,-0.829686 4.592913,-0.829686 1.066739,0 2.311271,0.148158 1.274162,0.148159 2.429799,0.414844 1.155635,0.237053 1.955691,0.592633 l -0.148158,1.659375 h -0.177791 q -1.185267,-1.037109 -2.844642,-1.57048 -1.659375,-0.53337 -3.52617,-0.53337 -2.78538,0 -4.88923,1.274162 -2.103849,1.244531 -3.289116,3.526171 -1.155637,2.252008 -1.155637,5.274441 0,3.022432 1.155637,5.304071 1.185267,2.252009 3.289116,3.526172 2.10385,1.24453 4.88923,1.24453 1.718637,0 3.170589,-0.474107 1.481585,-0.474106 2.548326,-1.363057 v -7.70424 z"
       id="text5"
       style="font-size:22.5778px;font-family:Aboreto;-inkscape-font-specification:Aboreto;text-align:center;letter-spacing:-0.166688px;fill:#214478;stroke-width:1.31243"
       aria-label="g" />
    <path
       d="M 48.02835,35.694492 V 14.952311 h 9.037665 v 1.451953 l -5.185546,-0.681529 c -0.908705,-0.118525 -1.521093,-0.17779 -1.837165,-0.17779 v 9.037664 c 0.256808,0 0.869196,-0.02963 1.837165,-0.08889 l 2.005194,0.409611 2.854403,0.657129 -4.859597,-0.296321 c -0.967969,-0.05926 -1.580357,-0.08889 -1.837165,-0.08889 v 9.926615 c 0.35558,0 0.977845,-0.05927 1.866796,-0.17779 l 5.244809,-0.681528 v 1.451952 z"
       id="text4"
       style="font-size:22.5778px;font-family:Aboreto;-inkscape-font-specification:Aboreto;text-align:center;letter-spacing:-0.166688px;fill:#214478;stroke-width:1.31243"
       aria-label="e"
       sodipodi:nodetypes="ccccccccccccccccc" />
  </g>
  <g
     inkscape:groupmode="layer"
     id="layer3"
     inkscape:label="PAGES Mid">
    <path
       d="m 43.300456,15.10047 c 0.770424,0.158035 1.42232,0.355579 1.955691,0.592633 1.649358,7.506176 1.833699,1.444891 -3.170591,0.08889 0.01194,-0.484779 0.406696,-0.70385 1.2149,-0.681524 z"
       id="text19"
       style="font-size:22.5778px;font-family:Aboreto;-inkscape-font-specification:Aboreto;text-align:center;letter-spacing:-0.166688px;fill:#214478;stroke-width:1.31243"
       aria-label="g"
       sodipodi:nodetypes="cccc" />
  </g>
  <g
     inkscape:label="POC Overlay"
     inkscape:groupmode="layer"
     id="g13"
     style="display:inline;fill:#784421;fill-opacity:1">
    <path
       d="M 11.078415,25.277106 V 4.5349225 h 3.703962 c 2.390289,0 4.247208,0.5136165 5.570757,1.5408482 1.323549,1.0074771 1.985324,2.4199203 1.985324,4.2373303 0,1.817411 -0.661775,3.239732 -1.985324,4.266964 -1.323549,1.007477 -3.180468,1.511216 -5.570757,1.511216 h -1.689006 l -0.0307,8.38782 z M 14.782377,5.2460827 H 13.093371 V 15.380121 h 1.689006 c 3.615065,0 5.422599,-1.689006 5.422599,-5.06702 0,-3.3780116 -1.807534,-5.0670183 -5.422599,-5.0670183 z"
       id="text11"
       style="font-size:22.5778px;font-family:Aboreto;-inkscape-font-specification:Aboreto;text-align:center;letter-spacing:-0.166688px;fill:#aa4400;stroke-width:1.31243"
       aria-label="P"
       sodipodi:nodetypes="ccscscscccsccsss" />
    <path
       d="m 22.61151,14.906014 c 0,-1.521092 0.266685,-2.933537 0.800057,-4.237331 0.553124,-1.3235494 1.313671,-2.4693089 2.281639,-3.4372767 0.987723,-0.9877225 2.133482,-1.7482693 3.437276,-2.2816405 1.323548,-0.5531245 2.74587,-0.8296867 4.266964,-0.8296867 1.521092,0 2.933536,0.2765622 4.23733,0.8296867 1.323549,0.5333712 2.469309,1.293918 3.437276,2.2816405 0.987723,0.9679678 1.74827,2.1137273 2.281641,3.4372767 0.553124,1.303794 0.829687,2.716239 0.829687,4.237331 0,1.521094 -0.276563,2.943415 -0.829687,4.266964 -0.533371,1.303794 -1.293918,2.449552 -2.281641,3.437275 -0.967967,0.967969 -2.113727,1.728516 -3.437276,2.28164 -1.303794,0.533371 -2.716238,0.800056 -4.23733,0.800056 -1.521094,0 -2.943416,-0.266685 -4.266964,-0.800056 -1.303794,-0.553124 -2.449553,-1.313671 -3.437276,-2.28164 -0.967968,-0.987723 -1.728515,-2.133481 -2.281639,-3.437275 -0.533372,-1.323549 -0.800057,-2.74587 -0.800057,-4.266964 z m 2.252009,0 c 0,2.014956 0.355581,3.782979 1.066741,5.304073 0.71116,1.501338 1.708761,2.676728 2.992801,3.526171 1.284039,0.829688 2.775501,1.244531 4.474385,1.244531 1.698884,0 3.190345,-0.414843 4.474385,-1.244531 1.284039,-0.849443 2.281639,-2.034711 2.992799,-3.555803 0.71116,-1.521094 1.066741,-3.27924 1.066741,-5.274441 0,-1.995201 -0.355581,-3.743471 -1.066741,-5.2448089 C 40.15347,8.1401115 39.15587,6.954844 37.871831,6.1054014 36.587791,5.25596 35.09633,4.8312393 33.397446,4.8312393 c -1.698884,0 -3.190346,0.4247207 -4.474385,1.2741621 -1.264285,0.829688 -2.261886,2.0050782 -2.992801,3.5261718 -0.71116,1.5013398 -1.066741,3.2594868 -1.066741,5.2744408 z"
       id="text12"
       style="font-size:22.5778px;font-family:Aboreto;-inkscape-font-specification:Aboreto;text-align:center;letter-spacing:-0.166688px;fill:#aa4400;stroke-width:1.31243"
       aria-label="O"
       sodipodi:nodetypes="scscscccscscscccssccscsscssccs" />
    <path
       d="m 63.249304,22.72878 -0.17779,1.807534 q -0.829687,0.355579 -2.014955,0.622264 -1.185267,0.266686 -2.400166,0.385213 -1.2149,0.148158 -2.163113,0.148158 -2.400167,0 -4.444754,-0.800056 -2.044587,-0.829687 -3.585434,-2.28164 -1.511216,-1.451953 -2.370536,-3.407644 -0.859319,-1.985323 -0.859319,-4.296595 0,-2.311272 0.859319,-4.266963 0.85932,-1.9853243 2.370536,-3.4372767 1.540847,-1.4519524 3.585434,-2.2520085 2.044587,-0.8296867 4.444754,-0.8296867 0.977845,0 2.192745,0.1481584 1.214899,0.1481585 2.370534,0.4148434 1.155636,0.237053 1.955692,0.5630018 L 62.864093,6.9054574 H 62.686302 Q 61.589929,5.8979803 59.930555,5.3646092 58.271181,4.8312393 56.49328,4.8312393 q -2.666853,0 -4.711439,1.2741621 -2.014955,1.2445313 -3.17059,3.5261718 -1.126005,2.2520088 -1.126005,5.2744408 0,3.052065 1.126005,5.304073 1.155635,2.252007 3.17059,3.526171 2.014955,1.244531 4.711439,1.244531 2.014954,0 3.733591,-0.651898 1.748271,-0.651897 2.844643,-1.600111 z"
       id="text13"
       style="font-size:22.5778px;font-family:Aboreto;-inkscape-font-specification:Aboreto;text-align:center;letter-spacing:-0.166688px;fill:#aa4400;stroke-width:1.31243"
       aria-label="C" />
  </g>
  <g
     inkscape:groupmode="layer"
     id="g18"
     inkscape:label="PAGES Overlay">
    <path
       id="text14"
       style="font-size:22.5778px;font-family:Aboreto;-inkscape-font-specification:Aboreto;text-align:center;letter-spacing:-0.166688px;fill:#214478;stroke-width:1.31243"
       d="M 3.9465947,14.952637 V 35.69448 h 2.0149765 v -9.185741 h 1.6887547 c 2.3902901,0 4.2473081,-0.503586 5.5708571,-1.511063 1.323548,-1.027232 1.985136,-2.449917 1.985136,-4.267328 0,-1.666199 -0.557976,-2.990939 -1.670444,-3.976373 -0.100821,0.05671 0.146264,1.155972 0.04747,1.216039 -0.329874,0.206993 -0.510695,1.448725 -0.510695,2.760334 0,3.378012 -1.807262,5.066943 -5.422328,5.066943 H 5.9615673 V 15.663406 H 7.650322 c 1.9118671,0 2.271032,-0.710765 -2.6e-6,-0.710765 z"
       sodipodi:nodetypes="ccccscsccssccssc" />
    <path
       d="m 27.832714,21.056439 c 0.592634,-1.303794 1.412443,-2.439676 2.45943,-3.407644 1.046986,-0.987723 2.271763,-1.748269 3.674329,-2.281641 1.402567,-0.553124 2.933538,-0.829686 4.592913,-0.829686 0.71116,0 1.481583,0.04939 2.311271,0.148158 0.849441,0.09877 1.659374,0.237053 2.429799,0.414844 0.770424,0.158035 1.42232,0.355579 1.955691,0.592633 l -0.148158,1.659375 h -0.177791 c -0.790178,-0.691406 -1.738392,-1.214899 -2.844642,-1.57048 -1.10625,-0.35558 -2.28164,-0.53337 -3.52617,-0.53337 -1.85692,0 -3.486663,0.424721 -4.88923,1.274162 -1.402566,0.829688 -2.498938,2.005078 -3.289116,3.526171 -0.857236,0.893658 -1.428382,1.920621 -2.548326,1.007478 z"
       id="text20"
       style="font-size:22.5778px;font-family:Aboreto;-inkscape-font-specification:Aboreto;text-align:center;letter-spacing:-0.166688px;fill:#214478;stroke-width:1.31243"
       aria-label="g"
       sodipodi:nodetypes="cccscccccssccc" />
    <path
       d="M 48.02835,35.694492 V 14.952311 h 9.037665 v 1.451953 l -5.185546,-0.681529 c -0.908705,-0.118525 -1.521093,-0.17779 -1.837165,-0.17779 v 9.037664 c 0.256808,0 0.256808,0.592638 0,0.592638 v 9.926615 c 0.35558,0 0.977845,-0.05927 1.866796,-0.17779 l 5.244809,-0.681528 v 1.451952 z"
       id="text17"
       style="font-size:22.5778px;font-family:Aboreto;-inkscape-font-specification:Aboreto;text-align:center;letter-spacing:-0.166688px;fill:#214478;stroke-width:1.31243"
       aria-label="e"
       sodipodi:nodetypes="ccccccccccccc" />
    <path
       d="m 58.573286,35.042596 0.17779,-1.777901 h 0.177791 q 1.155635,1.007477 2.607588,1.570478 1.451953,0.563002 2.874274,0.563002 2.014955,0 3.259485,-1.096371 1.244532,-1.126005 1.244532,-2.992801 0,-1.037109 -0.474108,-1.92606 -0.444475,-0.88895 -1.511216,-1.807533 -1.037109,-0.918582 -2.874273,-1.985323 -1.274163,-0.740793 -2.429799,-1.540847 -1.155635,-0.829688 -1.896427,-1.896429 -0.740793,-1.096372 -0.740793,-2.607588 0,-2.252009 1.629743,-3.615067 1.629743,-1.392688 4.296595,-1.392688 1.185267,0 2.548325,0.266685 1.363057,0.237053 2.103849,0.622265 l -0.148158,1.659374 h -0.177789 q -1.689007,-1.837164 -4.326227,-1.837164 -1.896428,0 -3.052065,0.977845 -1.155635,0.948215 -1.155635,2.577957 0,1.2149 0.622266,2.103851 0.651897,0.859318 1.659374,1.570478 1.007477,0.68153 2.163113,1.333426 1.333426,0.770424 2.577957,1.629743 1.274162,0.859319 2.074218,2.074218 0.829687,1.185268 0.829687,2.992801 0,1.659375 -0.770423,2.933537 -0.770424,1.244531 -2.192746,1.955691 -1.392688,0.711161 -3.259485,0.711161 -1.185268,0 -2.785379,-0.296317 -1.60011,-0.296317 -3.052064,-0.770423 z"
       id="text18"
       style="font-size:22.5778px;font-family:Aboreto;-inkscape-font-specification:Aboreto;text-align:center;letter-spacing:-0.166688px;fill:#214478;stroke-width:1.31243"
       aria-label="s" />
  </g>
</svg>
